<svg width="48" height="48" viewBox="0 0 48 48" fill="none" xmlns="http://www.w3.org/2000/svg">
<path d="M34.4402 29.1968H32.7794L32.1908 28.6292C34.7134 25.6861 36.0168 21.6708 35.3021 17.4033C34.314 11.5592 29.4369 6.91325 23.5717 6.17747C15.6043 5.18943 8.79306 11.0756 8.22546 18.6857H12.472C12.9765 14.229 16.5082 10.6972 21.007 10.3188C26.3466 9.85636 31.2868 14.3761 31.2868 19.7368C31.2868 24.9713 27.0614 29.1968 21.8268 29.1968C21.4695 29.1968 21.1331 29.1337 20.7757 29.0917V33.3382C20.7757 33.3382 20.7757 33.3382 20.7967 33.3592C24.5807 33.6325 28.0914 32.3711 30.7192 30.1007L31.2868 30.6894V32.3501L40.2213 41.2846C41.0832 42.1465 42.4917 42.1465 43.3536 41.2846C44.2155 40.4226 44.2155 39.0142 43.3536 38.1522L34.4402 29.1968Z" fill="#4E169D"/>
<path d="M14.7213 23.2475L10.2646 27.7042L5.80791 23.2475C5.38747 22.8271 4.73578 22.8271 4.31533 23.2475C3.89489 23.6679 3.89489 24.3196 4.31533 24.7401L8.77204 29.1968L4.31533 33.6535C3.89489 34.0739 3.89489 34.7256 4.31533 35.1461C4.73578 35.5665 5.38747 35.5665 5.80791 35.1461L10.2646 30.6894L14.7213 35.1461C15.1418 35.5665 15.7935 35.5665 16.2139 35.1461C16.6343 34.7256 16.6343 34.0739 16.2139 33.6535L11.7572 29.1968L16.2139 24.7401C16.6343 24.3196 16.6343 23.6679 16.2139 23.2475C15.7935 22.8481 15.1418 22.8481 14.7213 23.2475Z" fill="#4E169D"/>
</svg>
