<svg width="24" height="24" viewBox="0 0 24 24" fill="none" xmlns="http://www.w3.org/2000/svg">
<rect width="24" height="24" rx="12" fill="#222222" fill-opacity="0.6"/>
<path d="M15.7749 14.4027H15.0523L14.7961 14.1557C15.6926 13.1129 16.2324 11.7589 16.2324 10.2861C16.2324 7.00194 13.5703 4.33984 10.2861 4.33984C7.00194 4.33984 4.33984 7.00194 4.33984 10.2861C4.33984 13.5703 7.00194 16.2324 10.2861 16.2324C11.7589 16.2324 13.1129 15.6926 14.1557 14.7961L14.4027 15.0523V15.7749L18.9768 20.3398L20.3398 18.9768L15.7749 14.4027ZM10.2861 14.4027C8.00823 14.4027 6.16946 12.564 6.16946 10.2861C6.16946 8.00823 8.00823 6.16946 10.2861 6.16946C12.564 6.16946 14.4027 8.00823 14.4027 10.2861C14.4027 12.564 12.564 14.4027 10.2861 14.4027ZM10.7435 7.99908H9.82869V9.82869H7.99908V10.7435H9.82869V12.5731H10.7435V10.7435H12.5731V9.82869H10.7435V7.99908Z" fill="#FAFAFA"/>
</svg>
